<?xml version="1.0" encoding="UTF-8"?>
<svg version="1.1" xmlns="http://www.w3.org/2000/svg" width="227" height="256">
<path d="M0 0 C74.91 0 149.82 0 227 0 C227 84.48 227 168.96 227 256 C152.09 256 77.18 256 0 256 C0 171.52 0 87.04 0 0 Z " fill="#F6F6F6" transform="translate(0,0)"/>
<path d="M0 0 C1.58264648 -0.00580078 1.58264648 -0.00580078 3.19726562 -0.01171875 C4.29876953 -0.00011719 5.40027344 0.01148437 6.53515625 0.0234375 C8.18161133 0.00603516 8.18161133 0.00603516 9.86132812 -0.01171875 C10.91771484 -0.00785156 11.97410156 -0.00398438 13.0625 0 C14.02792725 0.00338379 14.99335449 0.00676758 15.98803711 0.01025391 C19.06592773 0.46809337 20.43329939 1.17349988 22.59765625 3.3984375 C23.14355469 5.39135742 23.14355469 5.39135742 23.20703125 7.62890625 C23.23925781 8.43134766 23.27148438 9.23378906 23.3046875 10.06054688 C23.31886719 10.89392578 23.33304687 11.72730469 23.34765625 12.5859375 C23.37730469 13.43091797 23.40695313 14.27589844 23.4375 15.14648438 C23.50812615 17.22995572 23.5551642 19.31420256 23.59765625 21.3984375 C24.26152344 21.58019531 24.92539063 21.76195313 25.609375 21.94921875 C33.07867499 24.07551583 33.07867499 24.07551583 36.41015625 26.1484375 C38.51536282 27.60943362 38.51536282 27.60943362 40.92578125 27.296875 C45.46484727 25.77058087 47.91772071 21.97991683 51 18.453125 C53.59765625 16.3984375 53.59765625 16.3984375 56.390625 16.11328125 C61.24789453 18.05973883 64.34903809 21.38696381 67.97265625 25.0859375 C68.70871094 25.79427734 69.44476563 26.50261719 70.203125 27.23242188 C75.3346521 32.38775012 75.3346521 32.38775012 76.41796875 36.55078125 C75.29641969 40.4441587 73.01846093 42.63251337 70.09765625 45.2734375 C69.57300781 45.77101562 69.04835937 46.26859375 68.5078125 46.78125 C67.21761123 48.00107665 65.90933893 49.20173999 64.59765625 50.3984375 C66.02929951 54.87393489 67.76093993 59.02278675 69.79296875 63.25 C70.59765625 65.3984375 70.59765625 65.3984375 70.59765625 69.3984375 C71.7784375 69.36363281 72.95921875 69.32882813 74.17578125 69.29296875 C75.73305867 69.26482518 77.2903515 69.23752563 78.84765625 69.2109375 C79.62496094 69.18580078 80.40226563 69.16066406 81.203125 69.13476562 C82.33427734 69.12026367 82.33427734 69.12026367 83.48828125 69.10546875 C84.17954102 69.0897583 84.87080078 69.07404785 85.58300781 69.05786133 C88.36034885 69.52737063 89.64098643 70.37445414 91.59765625 72.3984375 C92.09936523 74.98632813 92.09936523 74.98632813 92.09375 78.0546875 C92.09439453 79.15941406 92.09503906 80.26414062 92.09570312 81.40234375 C92.07572266 82.55605469 92.05574219 83.70976563 92.03515625 84.8984375 C92.04224609 86.05214844 92.04933594 87.20585938 92.05664062 88.39453125 C91.99270442 96.82427332 91.99270442 96.82427332 90.33496094 99.23364258 C88.17421069 100.6823412 86.95403036 100.74644546 84.3671875 100.69140625 C83.56474609 100.68173828 82.76230469 100.67207031 81.93554688 100.66210938 C81.10216797 100.63697266 80.26878906 100.61183594 79.41015625 100.5859375 C78.56517578 100.57240234 77.72019531 100.55886719 76.84960938 100.54492188 C74.76535241 100.50959549 72.68142348 100.45578889 70.59765625 100.3984375 C70.48808594 101.26210937 70.37851563 102.12578125 70.265625 103.015625 C69.36587486 107.57225439 67.43461599 111.41231794 65.4609375 115.59375 C64.36355343 118.27128281 64.36355343 118.27128281 65.1640625 120.48828125 C67.6169805 123.75661069 70.68179774 126.34541125 73.69921875 129.08203125 C75.59765625 131.3984375 75.59765625 131.3984375 75.99609375 134.0078125 C75.44948141 137.28748657 73.80540033 138.98371741 71.59765625 141.3984375 C72.9888424 144.65690462 74.51981191 146.39955466 77.29296875 148.578125 C89.81563557 158.93719707 89.81563557 158.93719707 90.65234375 164.49609375 C90.60338681 167.93357057 90.34149839 171.04598231 89.59765625 174.3984375 C90.37367188 174.67300781 91.1496875 174.94757813 91.94921875 175.23046875 C95.68147629 176.87640533 96.81746208 178.76958015 98.59765625 182.3984375 C98.51336152 187.20323693 97.46063717 190.54442472 94.59765625 194.3984375 C90.88377807 196.87435628 87.90183064 196.93751218 83.59765625 196.3984375 C79.43129286 194.63930629 77.35678746 192.56480089 75.59765625 188.3984375 C75.08250651 185.60757133 74.98551572 183.17834173 75.59765625 180.3984375 C78.13219282 177.17889105 79.7106293 175.69411315 83.59765625 174.3984375 C83.83327532 169.35618937 83.80658729 165.07074896 80.7734375 160.875 C78.46968697 158.58298335 76.1000041 156.47100811 73.59765625 154.3984375 C72.88738281 153.77453125 72.17710937 153.150625 71.4453125 152.5078125 C69.85129216 151.11263723 68.22785875 149.75115872 66.59765625 148.3984375 C64.36668034 149.46301107 62.60156768 150.3950476 60.72265625 152.0234375 C57.74622525 153.94936344 56.10531673 153.86443104 52.59765625 153.3984375 C50.36574954 151.60358824 48.61544708 149.99182301 46.72265625 147.8984375 C46.22507813 147.37378906 45.7275 146.84914062 45.21484375 146.30859375 C43.9950171 145.01839248 42.79435376 143.71012018 41.59765625 142.3984375 C39.07592527 143.39991206 36.56223566 144.41339165 34.0625 145.46875 C32.81146484 145.99082031 32.81146484 145.99082031 31.53515625 146.5234375 C30.28025391 147.05324219 30.28025391 147.05324219 29 147.59375 C26.59765625 148.3984375 26.59765625 148.3984375 22.59765625 148.3984375 C22.6440625 149.65140625 22.69046875 150.904375 22.73828125 152.1953125 C22.77580438 153.84633031 22.81220396 155.49737392 22.84765625 157.1484375 C22.88117188 157.9734375 22.9146875 158.7984375 22.94921875 159.6484375 C23.00935438 163.37684638 22.99853281 165.71653407 21.08203125 168.9765625 C18.59765625 170.3984375 18.59765625 170.3984375 10.59765625 170.3984375 C10.59765625 177.3284375 10.59765625 184.2584375 10.59765625 191.3984375 C12.24765625 192.0584375 13.89765625 192.7184375 15.59765625 193.3984375 C17.71230236 195.72454822 18.53611855 197.40116474 18.73046875 200.55078125 C18.50106318 204.60586214 17.87755471 206.9785898 15.59765625 210.3984375 C11.64368943 213.03441538 8.33589132 213.84056155 3.59765625 213.3984375 C-0.24910728 211.44008516 -2.0120055 209.98394488 -4.40234375 206.3984375 C-5.13173529 201.86942489 -4.97767038 198.38471172 -2.65234375 194.3984375 C-0.40234375 192.3984375 -0.40234375 192.3984375 3.59765625 191.3984375 C3.59765625 184.4684375 3.59765625 177.5384375 3.59765625 170.3984375 C0.95765625 170.3984375 -1.68234375 170.3984375 -4.40234375 170.3984375 C-6.88671875 168.9765625 -6.88671875 168.9765625 -8.40234375 166.3984375 C-8.86207237 163.2945181 -8.77944777 160.27715186 -8.65234375 157.1484375 C-8.63429688 156.30796875 -8.61625 155.4675 -8.59765625 154.6015625 C-8.55065173 152.53336355 -8.47891099 150.46575309 -8.40234375 148.3984375 C-9.59859375 148.28628906 -10.79484375 148.17414063 -12.02734375 148.05859375 C-15.85361166 147.58031026 -18.91709643 146.53499557 -22.40234375 144.8359375 C-23.35109375 144.38089844 -24.29984375 143.92585937 -25.27734375 143.45703125 C-26.32921875 142.93302734 -26.32921875 142.93302734 -27.40234375 142.3984375 C-28.04300781 143.10871094 -28.68367188 143.81898438 -29.34375 144.55078125 C-30.20871094 145.46988281 -31.07367188 146.38898438 -31.96484375 147.3359375 C-32.81175781 148.25246094 -33.65867188 149.16898438 -34.53125 150.11328125 C-37.9586231 152.84119045 -40.05142128 153.35815118 -44.40234375 153.3984375 C-46.98028867 152.11198749 -48.328699 150.47208225 -50.40234375 148.3984375 C-53.9999196 149.94739377 -56.52766837 152.13539698 -59.40234375 154.7734375 C-60.24796875 155.54429687 -61.09359375 156.31515625 -61.96484375 157.109375 C-62.76921875 157.86476562 -63.57359375 158.62015625 -64.40234375 159.3984375 C-65.15128906 160.04296875 -65.90023437 160.6875 -66.671875 161.3515625 C-69.45300368 164.64120455 -69.12345852 167.56490654 -69.0078125 171.72265625 C-68.13043705 175.60008969 -66.11166327 176.73892423 -62.97265625 178.9375 C-61.40234375 180.3984375 -61.40234375 180.3984375 -60.83203125 182.359375 C-60.71660574 186.79501246 -61.5904092 190.00472339 -64.40234375 193.3984375 C-67.937271 196.32737722 -71.00490333 196.92640695 -75.47265625 196.7578125 C-78.56548246 196.18182057 -80.25320412 194.61078711 -82.40234375 192.3984375 C-84.86151961 188.7096737 -85.21826312 185.6799946 -84.40234375 181.3984375 C-82.65783869 178.3763581 -80.56932211 175.98192668 -77.40234375 174.3984375 C-77.40835286 172.46049884 -77.45842126 170.52265949 -77.52734375 168.5859375 C-77.1088727 161.26269411 -74.28373826 158.18270511 -69.13818359 153.45483398 C-67.57893214 152.07796883 -65.99600628 150.73517536 -64.40234375 149.3984375 C-63.23832031 148.36783203 -63.23832031 148.36783203 -62.05078125 147.31640625 C-60.5284429 145.97887852 -58.97072854 144.68166142 -57.40234375 143.3984375 C-58.60615823 140.90482179 -59.85663097 138.71700667 -61.40234375 136.3984375 C-61.87109375 134.07421875 -61.87109375 134.07421875 -61.40234375 131.3984375 C-59.61571356 129.2492606 -57.93838872 127.45939903 -55.90234375 125.5859375 C-55.37769531 125.08384766 -54.85304688 124.58175781 -54.3125 124.06445312 C-53.02011843 122.83081617 -51.71264776 121.61302125 -50.40234375 120.3984375 C-51.73199273 116.15487694 -53.03550752 112.10493691 -55.08984375 108.1484375 C-56.48520166 105.22483045 -56.51423428 103.57399738 -56.40234375 100.3984375 C-56.96743652 100.40891113 -57.5325293 100.41938477 -58.11474609 100.43017578 C-60.66890028 100.47168538 -63.22298357 100.4977471 -65.77734375 100.5234375 C-66.66679688 100.54019531 -67.55625 100.55695313 -68.47265625 100.57421875 C-69.3234375 100.58066406 -70.17421875 100.58710937 -71.05078125 100.59375 C-71.83630371 100.60422363 -72.62182617 100.61469727 -73.43115234 100.62548828 C-75.40234375 100.3984375 -75.40234375 100.3984375 -77.40234375 98.3984375 C-77.86199065 94.10390543 -77.72634154 89.77720932 -77.71484375 85.4609375 C-77.73095703 84.25501953 -77.74707031 83.04910156 -77.76367188 81.80664062 C-77.76431641 80.65228516 -77.76496094 79.49792969 -77.765625 78.30859375 C-77.76860596 77.24777588 -77.77158691 76.18695801 -77.7746582 75.09399414 C-77.40234375 72.3984375 -77.40234375 72.3984375 -76.14404297 70.54736328 C-73.9810494 69.12052732 -72.74945797 69.05062656 -70.171875 69.10546875 C-69.36943359 69.11513672 -68.56699219 69.12480469 -67.74023438 69.13476562 C-66.90685547 69.15990234 -66.07347656 69.18503906 -65.21484375 69.2109375 C-63.94737305 69.23124023 -63.94737305 69.23124023 -62.65429688 69.25195312 C-60.57003991 69.28727951 -58.48611098 69.34108611 -56.40234375 69.3984375 C-56.23798828 67.82642578 -56.23798828 67.82642578 -56.0703125 66.22265625 C-55.27963011 61.69588398 -53.55432373 58.64778329 -51.265625 54.73046875 C-50.16902992 52.46858982 -50.16902992 52.46858982 -50.96875 50.37109375 C-53.37149961 47.06485791 -56.46632215 44.52428644 -59.50390625 41.8125 C-61.93825833 38.71696587 -61.82100394 37.26469171 -61.40234375 33.3984375 C-59.1854062 29.98290575 -56.18492537 27.29917712 -53.27734375 24.4609375 C-52.51679687 23.66880859 -51.75625 22.87667969 -50.97265625 22.06054688 C-45.37405002 16.49572534 -45.37405002 16.49572534 -41.1640625 16.07421875 C-36.70368233 18.21293003 -34.08348706 21.6752377 -30.8671875 25.34375 C-28.62652659 27.66508785 -28.62652659 27.66508785 -25.9765625 27.36328125 C-21.96746578 25.86063043 -18.06242632 24.1814913 -14.14453125 22.45703125 C-11.40234375 21.3984375 -11.40234375 21.3984375 -8.40234375 21.3984375 C-8.45455078 19.50158203 -8.45455078 19.50158203 -8.5078125 17.56640625 C-8.53595052 15.90626327 -8.56325066 14.24610594 -8.58984375 12.5859375 C-8.61498047 11.75255859 -8.64011719 10.91917969 -8.66601562 10.06054688 C-8.67568359 9.25810547 -8.68535156 8.45566406 -8.6953125 7.62890625 C-8.71102295 6.89051514 -8.7267334 6.15212402 -8.74291992 5.39135742 C-8.40234375 3.3984375 -8.40234375 3.3984375 -7.22167969 1.65893555 C-4.73634189 -0.06299133 -3.00939481 0.01056016 0 0 Z " fill="#5EB6FA" transform="translate(104.40234375,18.6015625)"/>
<path d="M0 0 C1.58264648 -0.00580078 1.58264648 -0.00580078 3.19726562 -0.01171875 C4.29876953 -0.00011719 5.40027344 0.01148437 6.53515625 0.0234375 C8.18161133 0.00603516 8.18161133 0.00603516 9.86132812 -0.01171875 C10.91771484 -0.00785156 11.97410156 -0.00398438 13.0625 0 C14.02792725 0.00338379 14.99335449 0.00676758 15.98803711 0.01025391 C19.06592773 0.46809337 20.43329939 1.17349988 22.59765625 3.3984375 C23.14355469 5.39135742 23.14355469 5.39135742 23.20703125 7.62890625 C23.23925781 8.43134766 23.27148438 9.23378906 23.3046875 10.06054688 C23.31886719 10.89392578 23.33304687 11.72730469 23.34765625 12.5859375 C23.37730469 13.43091797 23.40695313 14.27589844 23.4375 15.14648438 C23.50812615 17.22995572 23.5551642 19.31420256 23.59765625 21.3984375 C24.26152344 21.58019531 24.92539063 21.76195313 25.609375 21.94921875 C33.07867499 24.07551583 33.07867499 24.07551583 36.41015625 26.1484375 C38.51536282 27.60943362 38.51536282 27.60943362 40.92578125 27.296875 C45.46484727 25.77058087 47.91772071 21.97991683 51 18.453125 C53.59765625 16.3984375 53.59765625 16.3984375 56.390625 16.11328125 C61.24789453 18.05973883 64.34903809 21.38696381 67.97265625 25.0859375 C68.70871094 25.79427734 69.44476563 26.50261719 70.203125 27.23242188 C75.3346521 32.38775012 75.3346521 32.38775012 76.41796875 36.55078125 C75.29641969 40.4441587 73.01846093 42.63251337 70.09765625 45.2734375 C69.57300781 45.77101562 69.04835937 46.26859375 68.5078125 46.78125 C67.21761123 48.00107665 65.90933893 49.20173999 64.59765625 50.3984375 C66.02929951 54.87393489 67.76093993 59.02278675 69.79296875 63.25 C70.59765625 65.3984375 70.59765625 65.3984375 70.59765625 69.3984375 C71.7784375 69.36363281 72.95921875 69.32882813 74.17578125 69.29296875 C75.73305867 69.26482518 77.2903515 69.23752563 78.84765625 69.2109375 C79.62496094 69.18580078 80.40226563 69.16066406 81.203125 69.13476562 C82.33427734 69.12026367 82.33427734 69.12026367 83.48828125 69.10546875 C84.17954102 69.0897583 84.87080078 69.07404785 85.58300781 69.05786133 C88.36034885 69.52737063 89.64098643 70.37445414 91.59765625 72.3984375 C92.09936523 74.98632813 92.09936523 74.98632813 92.09375 78.0546875 C92.09439453 79.15941406 92.09503906 80.26414062 92.09570312 81.40234375 C92.07572266 82.55605469 92.05574219 83.70976563 92.03515625 84.8984375 C92.04224609 86.05214844 92.04933594 87.20585938 92.05664062 88.39453125 C91.99270442 96.82427332 91.99270442 96.82427332 90.33496094 99.23364258 C88.17421069 100.6823412 86.95403036 100.74644546 84.3671875 100.69140625 C83.56474609 100.68173828 82.76230469 100.67207031 81.93554688 100.66210938 C81.10216797 100.63697266 80.26878906 100.61183594 79.41015625 100.5859375 C78.56517578 100.57240234 77.72019531 100.55886719 76.84960938 100.54492188 C74.76535241 100.50959549 72.68142348 100.45578889 70.59765625 100.3984375 C70.48808594 101.26210937 70.37851563 102.12578125 70.265625 103.015625 C69.36587486 107.57225439 67.43461599 111.41231794 65.4609375 115.59375 C64.36355343 118.27128281 64.36355343 118.27128281 65.1640625 120.48828125 C67.6169805 123.75661069 70.68179774 126.34541125 73.69921875 129.08203125 C75.59765625 131.3984375 75.59765625 131.3984375 75.99609375 134.0078125 C75.44948141 137.28748657 73.80540033 138.98371741 71.59765625 141.3984375 C72.9888424 144.65690462 74.51981191 146.39955466 77.29296875 148.578125 C89.81563557 158.93719707 89.81563557 158.93719707 90.65234375 164.49609375 C90.60338681 167.93357057 90.34149839 171.04598231 89.59765625 174.3984375 C90.37367188 174.67300781 91.1496875 174.94757813 91.94921875 175.23046875 C95.68147629 176.87640533 96.81746208 178.76958015 98.59765625 182.3984375 C98.51336152 187.20323693 97.46063717 190.54442472 94.59765625 194.3984375 C90.88377807 196.87435628 87.90183064 196.93751218 83.59765625 196.3984375 C79.43129286 194.63930629 77.35678746 192.56480089 75.59765625 188.3984375 C75.08250651 185.60757133 74.98551572 183.17834173 75.59765625 180.3984375 C78.13219282 177.17889105 79.7106293 175.69411315 83.59765625 174.3984375 C83.83327532 169.35618937 83.80658729 165.07074896 80.7734375 160.875 C78.46968697 158.58298335 76.1000041 156.47100811 73.59765625 154.3984375 C72.88738281 153.77453125 72.17710937 153.150625 71.4453125 152.5078125 C69.85129216 151.11263723 68.22785875 149.75115872 66.59765625 148.3984375 C64.36668034 149.46301107 62.60156768 150.3950476 60.72265625 152.0234375 C57.74622525 153.94936344 56.10531673 153.86443104 52.59765625 153.3984375 C50.36574954 151.60358824 48.61544708 149.99182301 46.72265625 147.8984375 C46.22507813 147.37378906 45.7275 146.84914062 45.21484375 146.30859375 C43.9950171 145.01839248 42.79435376 143.71012018 41.59765625 142.3984375 C39.07592527 143.39991206 36.56223566 144.41339165 34.0625 145.46875 C32.81146484 145.99082031 32.81146484 145.99082031 31.53515625 146.5234375 C30.28025391 147.05324219 30.28025391 147.05324219 29 147.59375 C26.59765625 148.3984375 26.59765625 148.3984375 22.59765625 148.3984375 C22.6440625 149.65140625 22.69046875 150.904375 22.73828125 152.1953125 C22.77580438 153.84633031 22.81220396 155.49737392 22.84765625 157.1484375 C22.88117188 157.9734375 22.9146875 158.7984375 22.94921875 159.6484375 C23.00935438 163.37684638 22.99853281 165.71653407 21.08203125 168.9765625 C18.59765625 170.3984375 18.59765625 170.3984375 10.59765625 170.3984375 C10.59765625 177.3284375 10.59765625 184.2584375 10.59765625 191.3984375 C12.24765625 192.0584375 13.89765625 192.7184375 15.59765625 193.3984375 C17.71230236 195.72454822 18.53611855 197.40116474 18.73046875 200.55078125 C18.50106318 204.60586214 17.87755471 206.9785898 15.59765625 210.3984375 C11.64368943 213.03441538 8.33589132 213.84056155 3.59765625 213.3984375 C-0.24910728 211.44008516 -2.0120055 209.98394488 -4.40234375 206.3984375 C-5.13173529 201.86942489 -4.97767038 198.38471172 -2.65234375 194.3984375 C-0.40234375 192.3984375 -0.40234375 192.3984375 3.59765625 191.3984375 C3.59765625 184.4684375 3.59765625 177.5384375 3.59765625 170.3984375 C0.95765625 170.3984375 -1.68234375 170.3984375 -4.40234375 170.3984375 C-6.88671875 168.9765625 -6.88671875 168.9765625 -8.40234375 166.3984375 C-8.86207237 163.2945181 -8.77944777 160.27715186 -8.65234375 157.1484375 C-8.63429688 156.30796875 -8.61625 155.4675 -8.59765625 154.6015625 C-8.55065173 152.53336355 -8.47891099 150.46575309 -8.40234375 148.3984375 C-9.59859375 148.28628906 -10.79484375 148.17414063 -12.02734375 148.05859375 C-15.85361166 147.58031026 -18.91709643 146.53499557 -22.40234375 144.8359375 C-23.35109375 144.38089844 -24.29984375 143.92585937 -25.27734375 143.45703125 C-26.32921875 142.93302734 -26.32921875 142.93302734 -27.40234375 142.3984375 C-28.04300781 143.10871094 -28.68367188 143.81898438 -29.34375 144.55078125 C-30.20871094 145.46988281 -31.07367188 146.38898438 -31.96484375 147.3359375 C-32.81175781 148.25246094 -33.65867188 149.16898438 -34.53125 150.11328125 C-37.9586231 152.84119045 -40.05142128 153.35815118 -44.40234375 153.3984375 C-46.98028867 152.11198749 -48.328699 150.47208225 -50.40234375 148.3984375 C-53.9999196 149.94739377 -56.52766837 152.13539698 -59.40234375 154.7734375 C-60.24796875 155.54429687 -61.09359375 156.31515625 -61.96484375 157.109375 C-62.76921875 157.86476562 -63.57359375 158.62015625 -64.40234375 159.3984375 C-65.15128906 160.04296875 -65.90023437 160.6875 -66.671875 161.3515625 C-69.45300368 164.64120455 -69.12345852 167.56490654 -69.0078125 171.72265625 C-68.13043705 175.60008969 -66.11166327 176.73892423 -62.97265625 178.9375 C-61.40234375 180.3984375 -61.40234375 180.3984375 -60.83203125 182.359375 C-60.71660574 186.79501246 -61.5904092 190.00472339 -64.40234375 193.3984375 C-67.937271 196.32737722 -71.00490333 196.92640695 -75.47265625 196.7578125 C-78.56548246 196.18182057 -80.25320412 194.61078711 -82.40234375 192.3984375 C-84.86151961 188.7096737 -85.21826312 185.6799946 -84.40234375 181.3984375 C-82.65783869 178.3763581 -80.56932211 175.98192668 -77.40234375 174.3984375 C-77.40835286 172.46049884 -77.45842126 170.52265949 -77.52734375 168.5859375 C-77.1088727 161.26269411 -74.28373826 158.18270511 -69.13818359 153.45483398 C-67.57893214 152.07796883 -65.99600628 150.73517536 -64.40234375 149.3984375 C-63.23832031 148.36783203 -63.23832031 148.36783203 -62.05078125 147.31640625 C-60.5284429 145.97887852 -58.97072854 144.68166142 -57.40234375 143.3984375 C-58.60615823 140.90482179 -59.85663097 138.71700667 -61.40234375 136.3984375 C-61.87109375 134.07421875 -61.87109375 134.07421875 -61.40234375 131.3984375 C-59.61571356 129.2492606 -57.93838872 127.45939903 -55.90234375 125.5859375 C-55.37769531 125.08384766 -54.85304688 124.58175781 -54.3125 124.06445312 C-53.02011843 122.83081617 -51.71264776 121.61302125 -50.40234375 120.3984375 C-51.73199273 116.15487694 -53.03550752 112.10493691 -55.08984375 108.1484375 C-56.48520166 105.22483045 -56.51423428 103.57399738 -56.40234375 100.3984375 C-56.96743652 100.40891113 -57.5325293 100.41938477 -58.11474609 100.43017578 C-60.66890028 100.47168538 -63.22298357 100.4977471 -65.77734375 100.5234375 C-66.66679688 100.54019531 -67.55625 100.55695313 -68.47265625 100.57421875 C-69.3234375 100.58066406 -70.17421875 100.58710937 -71.05078125 100.59375 C-71.83630371 100.60422363 -72.62182617 100.61469727 -73.43115234 100.62548828 C-75.40234375 100.3984375 -75.40234375 100.3984375 -77.40234375 98.3984375 C-77.86199065 94.10390543 -77.72634154 89.77720932 -77.71484375 85.4609375 C-77.73095703 84.25501953 -77.74707031 83.04910156 -77.76367188 81.80664062 C-77.76431641 80.65228516 -77.76496094 79.49792969 -77.765625 78.30859375 C-77.76860596 77.24777588 -77.77158691 76.18695801 -77.7746582 75.09399414 C-77.40234375 72.3984375 -77.40234375 72.3984375 -76.14404297 70.54736328 C-73.9810494 69.12052732 -72.74945797 69.05062656 -70.171875 69.10546875 C-69.36943359 69.11513672 -68.56699219 69.12480469 -67.74023438 69.13476562 C-66.90685547 69.15990234 -66.07347656 69.18503906 -65.21484375 69.2109375 C-63.94737305 69.23124023 -63.94737305 69.23124023 -62.65429688 69.25195312 C-60.57003991 69.28727951 -58.48611098 69.34108611 -56.40234375 69.3984375 C-56.23798828 67.82642578 -56.23798828 67.82642578 -56.0703125 66.22265625 C-55.27963011 61.69588398 -53.55432373 58.64778329 -51.265625 54.73046875 C-50.16902992 52.46858982 -50.16902992 52.46858982 -50.96875 50.37109375 C-53.37149961 47.06485791 -56.46632215 44.52428644 -59.50390625 41.8125 C-61.93825833 38.71696587 -61.82100394 37.26469171 -61.40234375 33.3984375 C-59.1854062 29.98290575 -56.18492537 27.29917712 -53.27734375 24.4609375 C-52.51679687 23.66880859 -51.75625 22.87667969 -50.97265625 22.06054688 C-45.37405002 16.49572534 -45.37405002 16.49572534 -41.1640625 16.07421875 C-36.70368233 18.21293003 -34.08348706 21.6752377 -30.8671875 25.34375 C-28.62652659 27.66508785 -28.62652659 27.66508785 -25.9765625 27.36328125 C-21.96746578 25.86063043 -18.06242632 24.1814913 -14.14453125 22.45703125 C-11.40234375 21.3984375 -11.40234375 21.3984375 -8.40234375 21.3984375 C-8.45455078 19.50158203 -8.45455078 19.50158203 -8.5078125 17.56640625 C-8.53595052 15.90626327 -8.56325066 14.24610594 -8.58984375 12.5859375 C-8.61498047 11.75255859 -8.64011719 10.91917969 -8.66601562 10.06054688 C-8.67568359 9.25810547 -8.68535156 8.45566406 -8.6953125 7.62890625 C-8.71102295 6.89051514 -8.7267334 6.15212402 -8.74291992 5.39135742 C-8.40234375 3.3984375 -8.40234375 3.3984375 -7.22167969 1.65893555 C-4.73634189 -0.06299133 -3.00939481 0.01056016 0 0 Z M-2.40234375 6.3984375 C-2.53313396 12.18674894 -2.53313396 12.18674894 -2.61010742 17.97583008 C-2.69684731 20.20745607 -2.85254253 22.23131577 -3.40234375 24.3984375 C-6.20914169 26.83996722 -9.18012075 27.79555285 -12.71484375 28.8359375 C-16.58757033 30.03892732 -19.91179369 31.63941393 -23.3828125 33.7265625 C-26.44042627 34.74379571 -28.32916672 34.31690277 -31.40234375 33.3984375 C-34.17578125 31.11328125 -34.17578125 31.11328125 -36.77734375 28.3359375 C-37.65132812 27.41683594 -38.5253125 26.49773438 -39.42578125 25.55078125 C-40.07804687 24.84050781 -40.7303125 24.13023438 -41.40234375 23.3984375 C-45.96265199 27.20319172 -50.25323767 31.14813371 -54.40234375 35.3984375 C-52.94796393 38.8506759 -51.07077096 40.7529218 -48.27734375 43.2109375 C-45.54295105 45.91544613 -44.50709536 46.96331542 -43.58984375 50.7734375 C-44.50824984 54.87094158 -46.04085953 58.07830196 -48.02734375 61.7578125 C-49.83430853 65.22800623 -51.21504848 68.81214133 -52.60546875 72.46484375 C-53.40234375 74.3984375 -53.40234375 74.3984375 -54.40234375 75.3984375 C-57.26289789 75.63559705 -60.09962031 75.82034367 -62.96484375 75.9609375 C-65.74921875 76.1053125 -68.53359375 76.2496875 -71.40234375 76.3984375 C-71.40234375 82.3384375 -71.40234375 88.2784375 -71.40234375 94.3984375 C-65.13234375 94.7284375 -58.86234375 95.0584375 -52.40234375 95.3984375 C-52.01046875 96.8421875 -51.61859375 98.2859375 -51.21484375 99.7734375 C-50.07392694 103.65145763 -48.6360591 107.0327807 -46.71484375 110.5859375 C-44.5713253 114.78775808 -43.34125916 117.62355686 -44.40234375 122.3984375 C-46.47085252 125.35031474 -48.83871025 127.87323106 -51.40234375 130.3984375 C-51.97339844 130.97078125 -52.54445313 131.543125 -53.1328125 132.1328125 C-53.55175781 132.55046875 -53.97070312 132.968125 -54.40234375 133.3984375 C-52.81566797 137.30129517 -50.26883894 139.73364732 -47.27734375 142.6484375 C-46.36726563 143.54046875 -45.4571875 144.4325 -44.51953125 145.3515625 C-43.47152344 146.36476562 -43.47152344 146.36476562 -42.40234375 147.3984375 C-41.3374752 146.50542094 -40.27559334 145.6088428 -39.21484375 144.7109375 C-38.57289062 144.16824219 -37.9309375 143.62554687 -37.26953125 143.06640625 C-35.2013011 141.28232804 -35.2013011 141.28232804 -32.83984375 138.5234375 C-30.40234375 136.3984375 -30.40234375 136.3984375 -27.71484375 135.7734375 C-23.72121572 136.52695222 -20.71494327 138.11413776 -17.1484375 140.01953125 C-12.71384292 142.24629069 -8.08769286 143.77658588 -3.40234375 145.3984375 C-2.90734375 154.3084375 -2.90734375 154.3084375 -2.40234375 163.3984375 C3.86765625 163.3984375 10.13765625 163.3984375 16.59765625 163.3984375 C16.92765625 157.4584375 17.25765625 151.5184375 17.59765625 145.3984375 C23.05966568 143.05757631 28.53339318 140.75754266 34.0234375 138.484375 C35.56746845 137.83302355 37.09877927 137.14787599 38.59765625 136.3984375 C41.35546875 135.9921875 41.35546875 135.9921875 44.59765625 136.3984375 C46.82956296 138.19328676 48.57986542 139.80505199 50.47265625 141.8984375 C50.97023438 142.42308594 51.4678125 142.94773438 51.98046875 143.48828125 C53.2002954 144.77848252 54.40095874 146.08675482 55.59765625 147.3984375 C60.15796449 143.59368328 64.44855017 139.64874129 68.59765625 135.3984375 C67.14490519 131.97572558 65.27793511 130.00239189 62.53515625 127.5234375 C60.1568341 125.16247536 58.68570925 123.59131551 57.28515625 120.5234375 C57.68944217 116.4805783 59.2551086 113.67974682 61.19140625 110.140625 C63.10669032 106.40582106 64.39146597 102.53041057 65.703125 98.55078125 C66.59765625 96.3984375 66.59765625 96.3984375 68.59765625 95.3984375 C71.47833362 95.16556837 74.33778144 94.9789781 77.22265625 94.8359375 C81.36828125 94.619375 81.36828125 94.619375 85.59765625 94.3984375 C85.59765625 88.1284375 85.59765625 81.8584375 85.59765625 75.3984375 C79.65765625 75.0684375 73.71765625 74.7384375 67.59765625 74.3984375 C66.87578125 72.6040625 66.15390625 70.8096875 65.41015625 68.9609375 C63.44357631 64.19619525 61.24961293 59.79956217 58.515625 55.43359375 C57.30104752 52.74084963 57.05816151 51.32837643 57.59765625 48.3984375 C59.38428644 46.2492606 61.06161128 44.45939903 63.09765625 42.5859375 C63.62230469 42.08384766 64.14695313 41.58175781 64.6875 41.06445312 C65.97988157 39.83081617 67.28735224 38.61302125 68.59765625 37.3984375 C67.01203987 33.54250676 64.53255671 31.06627459 61.59765625 28.1484375 C60.71078125 27.25640625 59.82390625 26.364375 58.91015625 25.4453125 C56.86276522 23.17750677 56.86276522 23.17750677 54.59765625 23.3984375 C52.92887904 25.08649382 52.92887904 25.08649382 51.22265625 27.2109375 C45.49079171 34.14220101 45.49079171 34.14220101 41.14453125 34.73046875 C38.24845749 34.35291312 36.39691678 33.49802789 33.84765625 32.0859375 C29.77862633 29.9295953 25.8265849 28.35971494 21.41015625 27.07421875 C19.59765625 26.3984375 19.59765625 26.3984375 17.59765625 24.3984375 C17.27880859 22.51904297 17.27880859 22.51904297 17.18359375 20.265625 C17.13017822 19.17677002 17.13017822 19.17677002 17.07568359 18.06591797 C17.04168457 17.14439941 17.00768555 16.22288086 16.97265625 15.2734375 C16.84890625 12.3446875 16.72515625 9.4159375 16.59765625 6.3984375 C10.32765625 6.3984375 4.05765625 6.3984375 -2.40234375 6.3984375 Z " fill="#090B0C" transform="translate(104.40234375,18.6015625)"/>
<path d="M0 0 C9.1027856 6.51333699 12.99236828 13.97405214 16.10546875 24.55859375 C16.74061011 27.15612681 16.74061011 27.15612681 19 28 C19.29296875 34.0546875 19.29296875 34.0546875 19 36 C18.01 36.66 17.02 37.32 16 38 C14.9755371 40.60267902 14.9755371 40.60267902 14.1875 43.625 C11.12210436 53.30702322 4.8015809 61.34121855 -4.265625 66.21875 C-6.48905986 67.21702687 -8.72407969 68.12871745 -11 69 C-15.78226171 70.54834426 -15.78226171 70.54834426 -19 74 C-21.64 74 -24.28 74 -27 74 C-27.33 73.01 -27.66 72.02 -28 71 C-30.42295696 70.0334961 -30.42295696 70.0334961 -33.375 69.3125 C-42.83979845 66.33784906 -50.70375277 61.05110398 -55.78515625 52.390625 C-61.16460747 41.80469527 -63.02594658 31.32780925 -60.1875 19.66015625 C-56.16792618 8.81568105 -48.87372622 1.17666078 -38.5546875 -3.8828125 C-25.17069751 -9.73575002 -12.20090109 -7.33217903 0 0 Z " fill="#F2F2F2" transform="translate(134,72)"/>
<path d="M0 0 C0.43570313 0.37511719 0.87140625 0.75023437 1.3203125 1.13671875 C2.56446754 2.20583034 3.81347613 3.26931082 5.06640625 4.328125 C6.26973666 5.36858039 7.44969712 6.43754315 8.58984375 7.546875 C11.1815284 9.99419525 12.43235406 11.01158461 16.0625 10.9375 C18.7740061 10.07212571 21.39589998 9.14886765 24 8 C22.32738134 11.56940271 20.24469586 14.8054763 18.125 18.125 C12.59084884 26.9950594 9.53480003 35.89920596 7 46 C7.268125 45.38253906 7.53625 44.76507813 7.8125 44.12890625 C13.29087249 32.28913412 21.49037347 23.87838179 33.69140625 18.90234375 C46.66270621 14.84291217 59.99903463 16.49381328 72.08203125 22.54296875 C82.45732259 28.7454343 88.54558769 36.79647813 93 48 C93.70481573 50.81488516 93.94486417 53.07780094 94 56 C93 57 93 57 90.4375 57.0625 C89.633125 57.041875 88.82875 57.02125 88 57 C87.72027344 56.09378906 87.44054687 55.18757813 87.15234375 54.25390625 C82.93752196 41.44681111 77.31525146 33.35720799 65.08203125 27.00390625 C55.93953141 22.78584341 44.9472225 22.67029312 35.4765625 25.90234375 C25.45273836 30.34507969 18.29255694 37.73980336 13.5625 47.5625 C10.15447616 57.03415067 10.79043262 68.37272068 14.75 77.54296875 C20.256277 88.36624447 26.96897246 94.50633977 38.625 98.4375 C40.41164871 98.97529476 42.20170526 99.50253359 44 100 C44.38218767 101.65614657 44.71395102 103.32457024 45 105 C44.67 105.33 44.34 105.66 44 106 C33.84150807 105.83346735 24.09942963 101.26453264 17 94 C12.56658687 88.35302566 9.01231323 82.50659658 6 76 C9.80422431 89.97975111 15.65518413 103.1246851 24 115 C23.13375 114.67 22.2675 114.34 21.375 114 C17.83220046 112.95028162 15.6605581 112.52883906 12 113 C9.76809329 114.79484926 8.01779083 116.40661449 6.125 118.5 C5.62742188 119.02464844 5.12984375 119.54929687 4.6171875 120.08984375 C3.39736085 121.38004502 2.19669751 122.68831732 1 124 C-3.56030824 120.19524578 -7.85089392 116.25030379 -12 112 C-10.60366893 108.81440048 -8.95442507 106.76056155 -6.4375 104.375 C-3.46898682 101.54843236 -2.14747943 100.17983542 -1.625 96 C-1.67042042 91.61238701 -3.64012068 88.43101971 -5.6875 84.64453125 C-7.71023461 80.56896182 -8.81009046 76.38387725 -10 72 C-16.27 71.67 -22.54 71.34 -29 71 C-29 65.06 -29 59.12 -29 53 C-20.6875 52.8125 -20.6875 52.8125 -18.08081055 52.79223633 C-15.96255696 52.70500677 -14.05281575 52.53858704 -12 52 C-9.95105605 49.92113332 -9.95105605 49.92113332 -9 47 C-8.34837891 45.40285156 -8.34837891 45.40285156 -7.68359375 43.7734375 C-7.27238281 42.65195313 -6.86117187 41.53046875 -6.4375 40.375 C-5.1609557 36.89929993 -4.05825092 34.08737638 -2 31 C-1.42376873 26.59080183 -1.45631273 24.71358954 -4.1875 21.12890625 C-5.115625 20.28199219 -6.04375 19.43507813 -7 18.5625 C-7.928125 17.69753906 -8.85625 16.83257812 -9.8125 15.94140625 C-10.8953125 14.98041016 -10.8953125 14.98041016 -12 14 C-10.41332422 10.09714233 -7.86649519 7.66479018 -4.875 4.75 C-3.96492188 3.85796875 -3.05484375 2.9659375 -2.1171875 2.046875 C-1.41851562 1.37140625 -0.71984375 0.6959375 0 0 Z " fill="#1CA6FB" transform="translate(62,42)"/>
<path d="M0 0 C9.17938356 6.36634667 15.93921281 15.27003935 18.69140625 26.26171875 C19 28.4375 19 28.4375 19.0625 31.75 C18.0625 32.75 18.0625 32.75 15.5 32.8125 C14.695625 32.791875 13.89125 32.77125 13.0625 32.75 C12.78277344 31.84378906 12.50304687 30.93757813 12.21484375 30.00390625 C8.00002196 17.19681111 2.37775146 9.10720799 -9.85546875 2.75390625 C-18.99796859 -1.46415659 -29.9902775 -1.57970688 -39.4609375 1.65234375 C-49.48476164 6.09507969 -56.64494306 13.48980336 -61.375 23.3125 C-64.78302384 32.78415067 -64.14706738 44.12272068 -60.1875 53.29296875 C-54.681223 64.11624447 -47.96852754 70.25633977 -36.3125 74.1875 C-34.52585129 74.72529476 -32.73579474 75.25253359 -30.9375 75.75 C-30.55531233 77.40614657 -30.22354898 79.07457024 -29.9375 80.75 C-30.2675 81.08 -30.5975 81.41 -30.9375 81.75 C-41.09599193 81.58346735 -50.83807037 77.01453264 -57.9375 69.75 C-60.51851688 66.55279441 -62.7651488 63.23586587 -64.9375 59.75 C-65.45054688 58.98429687 -65.96359375 58.21859375 -66.4921875 57.4296875 C-72.13160223 47.52088534 -71.60040752 33.82651394 -69.05078125 22.9765625 C-64.99625216 12.49674976 -58.02694306 5.09873313 -48.9375 -1.25 C-48.15375 -1.8275 -47.37 -2.405 -46.5625 -3 C-31.37421104 -10.23251855 -14.30140148 -8.54953823 0 0 Z " fill="#080A0D" transform="translate(136.9375,66.25)"/>
<path d="M0 0 C4.40204753 0.04348894 6.27039703 0.07637928 10.0625 2.4375 C12.19392985 6.14776678 12.42796661 8.15654109 11.75 12.375 C9.875 15.3125 9.875 15.3125 7.75 17.375 C7.09 17.375 6.43 17.375 5.75 17.375 C6.19472656 17.89449219 6.63945313 18.41398437 7.09765625 18.94921875 C11.77744425 24.71633791 11.77744425 24.71633791 11.625 28.375 C11.191875 29.365 11.191875 29.365 10.75 30.375 C8.625 30.375 8.625 30.375 5.75 29.375 C3.49515308 26.87724217 1.60734917 24.17698037 -0.25 21.375 C-0.58 24.015 -0.91 26.655 -1.25 29.375 C-2.90614657 29.75718767 -4.57457024 30.08895102 -6.25 30.375 C-8.08034055 28.54465945 -7.38042797 25.64288008 -7.3828125 23.1875 C-7.38410156 21.93195313 -7.38539062 20.67640625 -7.38671875 19.3828125 C-7.38462402 18.72571289 -7.3825293 18.06861328 -7.38037109 17.39160156 C-7.37502234 15.38338665 -7.38031691 13.37539541 -7.38671875 11.3671875 C-7.38542969 10.11164063 -7.38414063 8.85609375 -7.3828125 7.5625 C-7.38112061 5.82033203 -7.38112061 5.82033203 -7.37939453 4.04296875 C-7.13958631 -0.90160521 -4.38457549 0.12780153 0 0 Z " fill="#090909" transform="translate(108.25,88.625)"/>
<path d="M0 0 C1.13953125 -0.03738281 2.2790625 -0.07476562 3.453125 -0.11328125 C7.42927705 0.40022654 9.02887317 1.40024041 11.75 4.3125 C12.61912854 7.37874229 12.3848205 10.20130763 11.75 13.3125 C9.87379387 15.81410818 8.51108697 16.93195652 5.75 18.3125 C3.4170134 18.35272391 1.08293334 18.35570247 -1.25 18.3125 C-1.25 21.9425 -1.25 25.5725 -1.25 29.3125 C-2.57 29.6425 -3.89 29.9725 -5.25 30.3125 C-7.25 28.3125 -7.25 28.3125 -7.49291992 25.62280273 C-7.48881104 24.50848877 -7.48470215 23.3941748 -7.48046875 22.24609375 C-7.47853516 21.03888672 -7.47660156 19.83167969 -7.47460938 18.58789062 C-7.46236328 17.32138672 -7.45011719 16.05488281 -7.4375 14.75 C-7.43685547 13.47962891 -7.43621094 12.20925781 -7.43554688 10.90039062 C-7.3838697 0.15727974 -7.3838697 0.15727974 0 0 Z " fill="#080808" transform="translate(130.25,88.6875)"/>
<path d="M0 0 C1.93166016 0.01740234 1.93166016 0.01740234 3.90234375 0.03515625 C5.19269531 0.04417969 6.48304687 0.05320312 7.8125 0.0625 C8.81152344 0.07410156 9.81054688 0.08570312 10.83984375 0.09765625 C11.22203142 1.75380282 11.55379477 3.42222649 11.83984375 5.09765625 C10.83984375 6.09765625 10.83984375 6.09765625 8.9921875 6.1953125 C6.94140625 6.16276042 4.890625 6.13020833 2.83984375 6.09765625 C2.83984375 8.07765625 2.83984375 10.05765625 2.83984375 12.09765625 C5.14984375 12.09765625 7.45984375 12.09765625 9.83984375 12.09765625 C10.22203142 13.75380282 10.55379477 15.42222649 10.83984375 17.09765625 C9.83984375 18.09765625 9.83984375 18.09765625 6.27734375 18.16015625 C5.14296875 18.13953125 4.00859375 18.11890625 2.83984375 18.09765625 C2.83984375 20.07765625 2.83984375 22.05765625 2.83984375 24.09765625 C5.47984375 24.09765625 8.11984375 24.09765625 10.83984375 24.09765625 C11.22203142 25.75380282 11.55379477 27.42222649 11.83984375 29.09765625 C9.96740394 30.97009606 6.90324857 30.27146017 4.40234375 30.28515625 C3.22800781 30.29933594 2.05367188 30.31351563 0.84375 30.328125 C-2.16015625 30.09765625 -2.16015625 30.09765625 -4.16015625 28.09765625 C-4.40307617 25.40795898 -4.40307617 25.40795898 -4.390625 22.03125 C-4.38869141 20.82404297 -4.38675781 19.61683594 -4.38476562 18.37304688 C-4.37251953 17.10654297 -4.36027344 15.84003906 -4.34765625 14.53515625 C-4.34701172 13.26478516 -4.34636719 11.99441406 -4.34570312 10.68554688 C-4.29494128 0.13272377 -4.29494128 0.13272377 0 0 Z " fill="#101010" transform="translate(86.16015625,88.90234375)"/>
<path d="M0 0 C2.0625 0.4375 2.0625 0.4375 4 1 C5.02929038 9.92051662 1.19111182 16.83189923 -4.15625 23.81640625 C-11.57542224 32.34083188 -18.73073387 37.63560356 -30 40 C-32.8671875 39.6015625 -32.8671875 39.6015625 -35 39 C-34.67 37.35 -34.34 35.7 -34 34 C-33.2265625 33.78085938 -32.453125 33.56171875 -31.65625 33.3359375 C-21.1206443 30.12831497 -13.3470344 25.15717177 -7 16 C-5.40347915 12.74230169 -4.17938857 9.42637534 -3 6 C-1.15437788 1.15437788 -1.15437788 1.15437788 0 0 Z " fill="#0A0B0D" transform="translate(151,108)"/>
<path d="M0 0 C6.27 0 12.54 0 19 0 C19 5.61 19 11.22 19 17 C18.67 17 18.34 17 18 17 C17.67 12.38 17.34 7.76 17 3 C14.69135411 3.99157245 12.40803785 5.01480455 10.125 6.0625 C9.14853516 6.47532227 9.14853516 6.47532227 8.15234375 6.89648438 C5.5423206 8.12077359 3.41662168 9.15512044 2.10839844 11.80810547 C1.46000201 13.94392145 1.46000201 13.94392145 1 17 C0.67 17 0.34 17 0 17 C0 11.39 0 5.78 0 0 Z " fill="#248CCC" transform="translate(102,25)"/>
<path d="M0 0 C0.33 0 0.66 0 1 0 C0.99871094 0.89976562 0.99742188 1.79953125 0.99609375 2.7265625 C2.11828939 6.38570626 2.42164453 6.61672011 5.59765625 8.3359375 C7.07535261 9.03834026 8.56433166 9.71739237 10.0625 10.375 C11.20041992 10.90673828 11.20041992 10.90673828 12.36132812 11.44921875 C14.23162065 12.31966936 16.11469588 13.16255939 18 14 C18 9.38 18 4.76 18 0 C18.33 0 18.66 0 19 0 C19 5.28 19 10.56 19 16 C12.73 16 6.46 16 0 16 C0 10.72 0 5.44 0 0 Z " fill="#22A0EE" transform="translate(102,166)"/>
<path d="M0 0 C2.875 0.75 2.875 0.75 3.875 1.75 C4 5.25 4 5.25 3.875 8.75 C2.875 9.75 2.875 9.75 -0.5625 9.9375 C-4.125 9.75 -4.125 9.75 -6.125 7.75 C-6.4883156 4.91613833 -6.4818671 3.34477849 -5 0.875 C-3.125 -0.25 -3.125 -0.25 0 0 Z " fill="#F4CD00" transform="translate(112.125,215.25)"/>
<path d="M0 0 C3 0.25 3 0.25 5 2.25 C5.36487512 5.09602594 5.40199375 6.6364306 3.8125 9.0625 C1.3864306 10.65199375 -0.15397406 10.61487512 -3 10.25 C-5 8.25 -5 8.25 -5.25 5.25 C-4.90584825 1.120179 -4.129821 0.34415175 0 0 Z " fill="#ECC100" transform="translate(32,198.75)"/>
<path d="M0 0 C3 0.25 3 0.25 5 2.25 C5.25 5.25 5.25 5.25 5 8.25 C3 10.25 3 10.25 0.5625 10.5625 C-2 10.25 -2 10.25 -3.8125 9.0625 C-5.40199375 6.6364306 -5.36487512 5.09602594 -5 2.25 C-3 0.25 -3 0.25 0 0 Z " fill="#E8BA00" transform="translate(191,198.75)"/>
<path d="M0 0 C0.33 0 0.66 0 1 0 C1.02725341 1.7290774 1.04650987 3.45828176 1.0625 5.1875 C1.07410156 6.15042969 1.08570312 7.11335938 1.09765625 8.10546875 C1.00486622 10.85576513 0.62111685 13.32479591 0 16 C-0.66 15.67 -1.32 15.34 -2 15 C-2 13.68 -2 12.36 -2 11 C-4.31 10.67 -6.62 10.34 -9 10 C-9 8.02 -9 6.04 -9 4 C-6.36 3.67 -3.72 3.34 -1 3 C-0.67 2.01 -0.34 1.02 0 0 Z " fill="#E7E7E7" transform="translate(98,91)"/>
<path d="M0 0 C4.95 0 9.9 0 15 0 C12.4135416 2.5864584 9.7061452 3.62271883 6.375 5.125 C5.18648438 5.66382813 3.99796875 6.20265625 2.7734375 6.7578125 C1.85820313 7.16773438 0.94296875 7.57765625 0 8 C0 5.36 0 2.72 0 0 Z " fill="#1DA7FE" transform="translate(104,27)"/>
<path d="M0 0 C0.66 0.33 1.32 0.66 2 1 C-3.61 6.61 -9.22 12.22 -15 18 C-15.66 17.34 -16.32 16.68 -17 16 C-15.10730953 14.08014172 -13.21100983 12.16408963 -11.3125 10.25 C-10.51682617 9.44175781 -10.51682617 9.44175781 -9.70507812 8.6171875 C-6.62068501 5.51387173 -3.48423727 2.66327598 0 0 Z " fill="#EAEAEA" transform="translate(52,166)"/>
<path d="M0 0 C0.598125 0.226875 1.19625 0.45375 1.8125 0.6875 C1.4825 1.3475 1.1525 2.0075 0.8125 2.6875 C0.772508 4.68710012 0.76903201 6.68797242 0.8125 8.6875 C-1.0625 9.3125 -1.0625 9.3125 -3.1875 9.6875 C-5.1875 7.6875 -5.1875 7.6875 -5.5 5.25 C-5.1875 2.6875 -5.1875 2.6875 -3.9375 0.8125 C-2.1875 -0.3125 -2.1875 -0.3125 0 0 Z " fill="#DCB000" transform="translate(111.1875,215.3125)"/>
<path d="M0 0 C1.98 0 3.96 0 6 0 C6.38218767 1.65614657 6.71395102 3.32457024 7 5 C6 6 6 6 2.9375 6.0625 C1.4834375 6.0315625 1.4834375 6.0315625 0 6 C0 4.02 0 2.04 0 0 Z " fill="#D8D8D8" transform="translate(129,95)"/>
<path d="M0 0 C2.76361547 2.76361547 4.03114012 6.11332497 5.625 9.625 C5.94984375 10.33140625 6.2746875 11.0378125 6.609375 11.765625 C7.41020386 13.50860545 8.20562293 15.25406965 9 17 C7.68 17 6.36 17 5 17 C2.54582388 11.326858 0.53753096 6.18160604 0 0 Z " fill="#50A8E7" transform="translate(67,115)"/>
<path d="M0 0 C1.98 0 3.96 0 6 0 C7.125 3.75 7.125 3.75 6 6 C4.02 6 2.04 6 0 6 C0 4.02 0 2.04 0 0 Z " fill="#DDDDDD" transform="translate(107,95)"/>
<path d="M0 0 C2.0625 0.4375 2.0625 0.4375 4 1 C4 2.98 4 4.96 4 7 C2.68 7.33 1.36 7.66 0 8 C-0.38063221 5.6739143 -0.71269945 3.33944736 -1 1 C-0.67 0.67 -0.34 0.34 0 0 Z " fill="#F5CF00" transform="translate(192,200)"/>
<path d="M0 0 C0.66 0.33 1.32 0.66 2 1 C1.32116957 4.11547441 0.25893098 6.85137721 -1.0625 9.75 C-1.60583984 10.94882813 -1.60583984 10.94882813 -2.16015625 12.171875 C-2.43730469 12.77515625 -2.71445313 13.3784375 -3 14 C-4.37095624 10.30962722 -3.60010967 8.29116165 -2.0625 4.75 C-1.68222656 3.85796875 -1.30195312 2.9659375 -0.91015625 2.046875 C-0.60980469 1.37140625 -0.30945313 0.6959375 0 0 Z " fill="#57AEEF" transform="translate(72,76)"/>
</svg>
